PathFileType	4	(X/Y/Z)	C:/Users/opensim2020/Desktop/walking_exp_matlab/subject06_walking22_straight_03.trc	
DataRate	CameraRate	NumFrames	NumMarkers	Units	OrigDataRate	OrigDataStartFrame	OrigNumFrames	
100.00	100.00	7	44	mm	100.00	1693	77	
Frame#	Time	LFHD			RFHD			LBHD			RBHD			C7			T10			CLAV			STRN			RBAK			LSHO			LUPA			LELB			LFRM			LWRA			LWRB			LFIN			RSHO			RUPA			RELB			RFRM			RWRA			RWRB			RFIN			LASI			RASI			LPSI			RPSI			LTHI			LKNE			LTIB			LANK			LHEE			LTOE			RTHI			RKNE			RTIB			RANK			RHEE			RTOE			*39			*40			*41			*42			*43			
		X1	Y1	Z1	X2	Y2	Z2	X3	Y3	Z3	X4	Y4	Z4	X5	Y5	Z5	X6	Y6	Z6	X7	Y7	Z7	X8	Y8	Z8	X9	Y9	Z9	X10	Y10	Z10	X11	Y11	Z11	X12	Y12	Z12	X13	Y13	Z13	X14	Y14	Z14	X15	Y15	Z15	X16	Y16	Z16	X17	Y17	Z17	X18	Y18	Z18	X19	Y19	Z19	X20	Y20	Z20	X21	Y21	Z21	X22	Y22	Z22	X23	Y23	Z23	X24	Y24	Z24	X25	Y25	Z25	X26	Y26	Z26	X27	Y27	Z27	X28	Y28	Z28	X29	Y29	Z29	X30	Y30	Z30	X31	Y31	Z31	X32	Y32	Z32	X33	Y33	Z33	X34	Y34	Z34	X35	Y35	Z35	X36	Y36	Z36	X37	Y37	Z37	X38	Y38	Z38	X39	Y39	Z39	X40	Y40	Z40	X41	Y41	Z41	X42	Y42	Z42	X43	Y43	Z43	X44	Y44	Z44	

10	0.090	1370.08240	-434.30774	1611.84436	1501.50085	-418.37842	1611.43604	1390.42322	-568.19263	1563.33313	1518.90161	-550.94104	1567.28369	1446.81775	-571.04761	1417.97388	1449.27344	-641.07544	1093.57129	1446.60303	-467.37878	1328.06982	1447.79175	-448.79291	1150.67004	1532.98694	-662.83716	1261.18994	1284.21350	-522.74774	1362.18994	1206.90601	-594.63885	1178.53137	1189.28967	-644.04584	1079.04480	1151.05920	-684.32281	938.39227	1170.60583	-675.20575	803.94958	1144.08716	-735.84808	830.72424	1129.82837	-736.27551	740.95874	1606.99280	-506.20148	1369.83850	1711.76514	-542.83105	1182.56140	1736.95459	-519.02521	1067.16138	1748.96033	-449.72195	973.10870	1700.75940	-332.12695	892.32764	1746.79102	-370.21695	862.10138	1739.29065	-295.98398	824.04749	1365.79700	-449.31866	922.38983	1583.96973	-490.25992	930.95001	1359.85437	-608.16003	949.85583	1525.68396	-635.95514	962.62976	1284.52600	-433.85123	619.12262	1319.73059	-358.06204	478.01422	1327.16223	-289.91705	235.38803	1368.46875	-218.90358	77.60726	1415.37866	-249.19347	48.41144	1374.00903	-76.78771	106.80229	1630.12830	-615.53589	615.27209	1613.77014	-646.72253	490.67639	1611.64587	-804.05579	269.00186	1568.82971	-902.06494	108.60198	1525.94348	-950.91962	100.45539	1564.96033	-769.61414	35.47924	1437.55139	-525.41974	1658.59253												 
11	0.100	1369.29199	-419.52649	1611.82385	1500.80383	-403.69217	1611.09558	1389.48950	-553.38208	1563.10876	1517.85144	-536.19196	1566.76355	1445.83862	-555.63983	1417.28345	1449.21887	-625.05054	1092.84741	1445.15808	-452.43301	1327.88977	1446.78491	-432.92181	1150.70337	1532.86853	-647.11859	1260.88806	1283.16089	-509.28973	1361.92322	1206.53284	-581.46637	1178.27576	1189.35608	-630.68561	1078.71704	1151.37366	-671.76495	938.30676	1170.72009	-662.39050	803.89252	1144.56824	-723.56787	830.86273	1130.43066	-724.82855	741.01495	1605.69189	-489.94330	1369.48596	1711.27991	-526.51538	1182.74963	1736.80066	-503.60068	1067.47034	1748.79224	-434.22000	973.50659	1700.46301	-316.61426	893.17639	1746.49146	-354.53198	862.72485	1739.20886	-280.15121	825.43146	1366.06006	-431.85281	922.95123	1584.32971	-474.55075	930.49048	1359.04028	-590.75653	949.58649	1524.44324	-619.64935	961.51288	1284.03918	-413.69077	620.68475	1319.59509	-340.40131	478.77969	1326.05908	-275.65042	234.32446	1366.62207	-207.68430	75.23435	1413.10889	-238.66148	45.98492	1373.23914	-65.71159	103.15707	1630.50806	-600.81635	615.01141	1614.89880	-632.14221	490.24478	1612.26709	-795.05914	272.44711	1569.73901	-898.02319	115.24611	1526.70972	-946.64972	109.33949	1564.92798	-769.47778	35.47142	1436.84937	-510.76367	1658.26416												 
12	0.110	1368.39856	-404.59341	1612.21448	1499.96936	-388.88632	1611.22314	1388.24866	-538.43994	1563.50208	1516.75195	-521.49939	1566.90894	1444.98071	-540.86523	1417.11731	1449.01172	-608.41095	1092.42590	1443.54932	-437.21600	1328.23950	1445.48083	-416.73682	1151.30920	1532.57153	-631.10687	1260.75049	1282.12524	-495.83322	1362.20068	1206.07288	-568.02521	1178.58228	1189.36450	-617.08459	1078.96741	1151.69690	-658.18237	938.36774	1171.16699	-648.99854	803.87469	1145.11108	-710.08185	831.12427	1131.09766	-711.56995	741.11487	1604.12805	-473.88870	1369.79480	1710.61328	-510.10104	1183.47144	1736.32910	-488.14761	1068.20691	1748.50110	-419.20389	974.18011	1700.25012	-301.90765	893.69751	1746.26050	-339.83865	863.21857	1739.41504	-265.38385	826.25330	1365.97632	-414.04974	924.12811	1583.98230	-458.30920	930.33862	1358.34351	-573.09448	949.79736	1523.23071	-602.67303	960.69958	1283.83789	-393.51859	622.76166	1319.61121	-322.07654	480.16312	1324.70239	-262.87933	233.17729	1364.79602	-199.39934	72.52010	1410.89709	-231.63838	44.15340	1372.46143	-57.03853	97.24284	1630.75037	-585.00684	614.82532	1616.04407	-616.36987	489.96283	1612.87976	-785.05371	276.36707	1570.54309	-892.92358	122.61498	1527.35229	-941.14758	119.17009	1564.84509	-769.22229	35.48992	1435.92932	-495.85645	1658.56201												 
13	0.120	1367.37903	-389.47217	1612.99573	1498.86597	-374.02979	1611.74329	1386.94702	-523.38739	1564.43591	1515.47449	-506.71579	1567.58020	1443.95251	-526.06842	1417.38184	1448.55688	-591.35309	1092.30115	1441.97229	-421.81213	1329.14368	1444.17078	-400.01926	1152.50244	1532.16943	-614.98004	1260.79932	1281.02649	-482.02277	1362.91589	1205.51917	-554.31213	1179.36304	1189.25244	-602.93408	1079.51514	1152.01233	-644.03076	938.75305	1171.71216	-634.27917	804.31213	1145.78979	-695.45972	831.36688	1132.02881	-696.92017	741.46057	1602.45911	-458.07333	1370.69641	1709.65466	-493.66382	1184.67920	1735.44373	-472.81552	1069.49084	1748.04028	-404.67096	975.09967	1700.09888	-287.91315	893.87292	1746.01135	-326.02405	863.60132	1739.46826	-251.69444	826.42999	1365.64063	-395.98596	925.77167	1583.31421	-441.11163	930.75885	1357.65210	-555.03998	950.37933	1522.14404	-585.01855	960.31757	1284.32092	-373.04126	625.13068	1319.80640	-303.49265	481.97849	1323.83960	-250.91971	232.23708	1364.74792	-193.41144	69.37159	1410.88806	-227.35802	43.73832	1370.93677	-50.77145	87.70730	1631.02722	-568.00952	614.73816	1617.27808	-599.12616	489.77249	1613.38025	-773.76825	280.70026	1571.23145	-886.74579	130.78290	1527.83289	-934.11536	130.15532	1564.79041	-769.13885	35.52530	1434.82983	-480.79578	1659.34180												 
14	0.130	1366.22046	-374.68338	1614.17993	1497.83789	-359.00793	1612.83411	1385.35059	-508.21115	1565.81519	1513.96521	-491.82666	1568.80420	1442.74622	-511.26987	1418.13989	1447.99011	-573.96722	1092.45300	1440.23743	-406.29807	1330.52930	1442.70789	-382.98129	1154.18738	1531.55774	-598.72388	1260.93335	1279.76172	-467.93015	1364.14355	1204.82007	-540.21619	1180.62488	1189.06714	-588.37891	1080.42529	1152.30310	-629.12115	939.41870	1172.32324	-618.48462	804.94702	1146.70825	-679.72681	831.47766	1133.05139	-681.09552	741.74005	1600.79272	-442.49664	1372.14539	1708.54956	-477.52148	1186.33997	1734.26086	-457.88107	1071.16455	1747.28308	-390.80899	976.12268	1700.02002	-274.62842	893.67645	1745.71777	-313.14517	863.82440	1739.72522	-238.98007	826.01709	1365.03882	-377.98425	927.71179	1582.57324	-423.03305	931.80530	1356.58008	-536.83173	951.62970	1521.09265	-567.01300	960.35370	1285.21179	-353.33896	627.72711	1319.78687	-285.59293	483.98416	1324.72266	-240.08667	231.72598	1365.63269	-188.71440	68.44194	1413.47888	-223.58807	46.47558	1368.35864	-44.76855	74.63854	1631.24390	-549.73596	614.67432	1618.41248	-580.63947	489.83804	1613.83423	-761.20477	285.67169	1572.00623	-879.44489	140.24997	1528.01929	-925.51160	142.45262	1564.81458	-769.56256	35.64010	1433.52197	-465.56696	1660.64502												 
15	0.140	1364.99182	-358.87411	1616.28015	1496.63342	-344.09927	1614.78540	1383.70300	-492.90128	1567.79016	1512.41956	-476.98944	1570.74609	1441.44043	-496.54739	1419.69116	1447.57434	-556.45978	1093.31433	1438.76196	-390.56903	1332.64941	1441.25623	-366.08493	1156.54675	1530.41418	-582.42358	1261.59436	1278.50366	-453.44080	1365.78821	1204.08618	-525.53204	1182.18542	1188.78979	-573.42224	1081.57129	1152.57312	-613.29773	940.17114	1172.99438	-601.61298	805.78442	1147.59009	-663.06592	831.88275	1134.21289	-664.11749	742.11261	1599.29517	-427.14282	1374.18677	1707.29578	-461.77670	1188.36182	1732.95422	-443.11145	1073.18237	1746.62756	-377.14603	977.21704	1699.97461	-261.93161	893.06805	1745.50195	-301.09668	863.78400	1740.09497	-227.45764	825.11139	1364.04346	-360.01398	930.05621	1581.23779	-404.36060	932.99414	1355.53857	-518.82568	953.86542	1520.29163	-548.59729	961.00867	1286.26099	-334.63867	630.61945	1319.11145	-268.85492	486.18591	1325.31995	-228.75600	232.76834	1365.23206	-184.85655	68.92944	1413.02856	-220.13914	48.83780	1367.80029	-40.09308	66.87333	1631.31799	-530.04767	614.48718	1619.51538	-560.02417	489.42249	1614.00085	-747.05304	291.35092	1572.43164	-870.45837	150.79097	1528.02808	-914.83069	156.61348	1565.37878	-771.40839	35.99416	1431.96802	-450.44540	1662.59485												 
16	0.150	1363.66272	-343.54938	1618.87915	1495.40210	-329.12842	1617.38501	1382.01257	-477.58850	1570.32642	1510.71204	-462.00491	1573.26953	1439.83972	-480.63034	1421.64563	1447.22803	-538.89258	1094.66248	1437.21179	-375.04123	1335.24109	1439.74207	-349.21530	1159.34888	1529.12305	-566.24469	1262.90308	1277.07849	-438.59412	1367.87939	1203.21228	-510.19983	1184.05542	1188.36865	-557.58014	1083.03943	1152.82971	-596.84149	941.21790	1174.13049	-583.19373	806.95355	1148.36902	-645.83655	832.67456	1135.46594	-645.70306	742.59686	1598.04114	-411.80746	1376.70032	1705.76978	-446.67258	1190.72375	1731.46790	-428.63327	1075.25037	1745.76221	-364.11581	978.26862	1699.98425	-249.98956	892.15997	1745.39453	-289.84998	863.55939	1740.42810	-216.99359	823.67786	1362.79016	-342.16257	932.80682	1579.24329	-385.52512	934.43701	1354.83240	-501.04700	957.16254	1519.86560	-529.92365	962.27582	1287.14966	-316.98688	633.85718	1318.10242	-252.55432	489.16168	1324.08875	-217.76503	234.66582	1364.93164	-180.21269	68.57716	1412.35913	-217.13307	50.33780	1367.52222	-36.20012	62.73610	1631.54077	-508.99661	614.27631	1620.72778	-537.15405	488.64828	1613.97461	-731.08966	297.96704	1572.90930	-859.80438	163.35158	1527.60583	-901.30841	172.47719	1565.61633	-775.32465	36.25147	1430.40979	-435.33060	1665.15198												 
